<svg width="209" height="209" viewBox="0 0 209 209" fill="none" xmlns="http://www.w3.org/2000/svg">
<circle cx="107.5" cy="100.5" r="62.5" fill="url(#paint0_radial_711_5)"/>
<path fill-rule="evenodd" clip-rule="evenodd" d="M14.5042 30.0805C10.4755 30.472 7.32757 31.369 5.1746 32.7717C-1.33326 36.9798 -1.7084 45.0372 4.0818 56.5849C11.0068 70.4129 26.0644 87.3388 45.5 104.247C76.1377 129.864 94.4885 140.572 127.318 159.365C127.852 159.636 128.387 159.905 128.922 160.172C161.526 176.483 187.965 183.235 200.834 178.538C204.863 177.07 207.326 174.444 208.468 170.399C208.81 169.159 208.729 165.082 208.305 163.108C207.244 158.182 204.211 151.724 199.905 145.281C193.478 135.658 183.643 124.501 171.883 113.541L169.029 110.866C168.108 116.313 167.336 119.453 164.805 125.447C164.902 125.464 165.832 126.475 166.892 127.682C169.486 130.618 171.443 133.146 173.351 136C176.32 140.453 177.608 143.47 177.722 146.341C177.837 148.51 177.494 149.473 176.206 150.647C174.607 152.115 172.846 152.539 168.85 152.409C165.261 152.311 161.82 151.675 156.976 150.223C154.48 149.473 149.081 147.597 148.869 147.418C101.379 125.977 74.1856 107.506 48.5277 79.9251L47.9568 79.2727C47.825 79.1277 47.584 78.8549 47.2833 78.5145C46.8398 78.0125 46.2666 77.3635 45.7223 76.7609C35.4793 65.1805 32.152 56.4708 36.7679 53.2902C37.6486 52.6867 38.9535 52.1974 40.2583 51.9854C41.6936 51.7571 45.8202 51.9365 48.0221 52.3116C50.8927 52.8172 54.7583 53.8285 58.5423 55.0844C60.3854 55.7042 62.1143 56.2913 62.3915 56.4218L62.8972 56.6339C67.3309 52.5785 69.8787 50.447 74.6896 47.2554L71.3949 45.7222C51.4472 36.5068 34.4844 31.1896 21.6318 30.1458C19.6909 29.9827 15.8416 29.95 14.5042 30.0805Z" fill="url(#paint1_radial_711_5)"/>
<defs>
<radialGradient id="paint0_radial_711_5" cx="0" cy="0" r="1" gradientUnits="userSpaceOnUse" gradientTransform="translate(144.5 81.5) rotate(138.43) scale(112.278 132.438)">
<stop stop-color="#7B1FA2"/>
<stop offset="0.295903" stop-color="#673AB7"/>
<stop offset="0.493579" stop-color="#673AB7"/>
<stop offset="0.625775" stop-color="#3C0B67"/>
<stop offset="0.777848" stop-color="#3C0B67"/>
<stop offset="0.859375" stop-color="#673AB7"/>
</radialGradient>
<radialGradient id="paint1_radial_711_5" cx="0" cy="0" r="1" gradientUnits="userSpaceOnUse" gradientTransform="translate(106 102) rotate(124.2) scale(62.2676 211.966)">
<stop offset="0.389779" stop-color="#AA6EF9"/>
<stop offset="0.632845" stop-color="#7B1FA2"/>
</radialGradient>
</defs>
</svg>
